<svg width="22" height="22" viewBox="0 0 22 22" fill="none" xmlns="http://www.w3.org/2000/svg">
<path fill-rule="evenodd" clip-rule="evenodd" d="M13.0346 2.03437C13.6674 1.40163 14.5606 1.14551 15.5833 1.14551H17.4166C18.4392 1.14551 19.3325 1.40163 19.9652 2.03437C20.598 2.66711 20.8541 3.56037 20.8541 4.58301V6.41634C20.8541 7.43898 20.598 8.33224 19.9652 8.96498C19.3325 9.59772 18.4392 9.85384 17.4166 9.85384H15.5833C14.5606 9.85384 13.6674 9.59772 13.0346 8.96498C12.4019 8.33224 12.1458 7.43898 12.1458 6.41634V4.58301C12.1458 3.56037 12.4019 2.66711 13.0346 2.03437ZM14.0069 3.00664C13.723 3.29057 13.5208 3.77232 13.5208 4.58301V6.41634C13.5208 7.22703 13.723 7.70878 14.0069 7.9927C14.2908 8.27663 14.7726 8.47884 15.5833 8.47884H17.4166C18.2273 8.47884 18.709 8.27663 18.9929 7.9927C19.2769 7.70878 19.4791 7.22703 19.4791 6.41634V4.58301C19.4791 3.77232 19.2769 3.29057 18.9929 3.00664C18.709 2.72272 18.2273 2.52051 17.4166 2.52051H15.5833C14.7726 2.52051 14.2908 2.72272 14.0069 3.00664Z" fill="#1B1B20"/>
<path fill-rule="evenodd" clip-rule="evenodd" d="M2.03462 13.0344C2.66735 12.4016 3.56061 12.1455 4.58325 12.1455H6.41658C7.43923 12.1455 8.33248 12.4016 8.96522 13.0344C9.59796 13.6671 9.85408 14.5604 9.85408 15.583V17.4163C9.85408 18.439 9.59796 19.3322 8.96522 19.965C8.33248 20.5977 7.43923 20.8538 6.41658 20.8538H4.58325C3.56061 20.8538 2.66735 20.5977 2.03462 19.965C1.40188 19.3322 1.14575 18.439 1.14575 17.4163V15.583C1.14575 14.5604 1.40188 13.6671 2.03462 13.0344ZM3.00689 14.0066C2.72296 14.2906 2.52075 14.7723 2.52075 15.583V17.4163C2.52075 18.227 2.72296 18.7088 3.00689 18.9927C3.29082 19.2766 3.77256 19.4788 4.58325 19.4788H6.41658C7.22728 19.4788 7.70902 19.2766 7.99295 18.9927C8.27688 18.7088 8.47908 18.227 8.47908 17.4163V15.583C8.47908 14.7723 8.27688 14.2906 7.99295 14.0066C7.70902 13.7227 7.22728 13.5205 6.41658 13.5205H4.58325C3.77256 13.5205 3.29082 13.7227 3.00689 14.0066Z" fill="#1B1B20"/>
<path fill-rule="evenodd" clip-rule="evenodd" d="M5.49992 2.52051C3.85457 2.52051 2.52075 3.85433 2.52075 5.49967C2.52075 7.14502 3.85457 8.47884 5.49992 8.47884C7.14527 8.47884 8.47908 7.14502 8.47908 5.49967C8.47908 3.85433 7.14527 2.52051 5.49992 2.52051ZM1.14575 5.49967C1.14575 3.09493 3.09518 1.14551 5.49992 1.14551C7.90466 1.14551 9.85408 3.09493 9.85408 5.49967C9.85408 7.90441 7.90466 9.85384 5.49992 9.85384C3.09518 9.85384 1.14575 7.90441 1.14575 5.49967Z" fill="#1B1B20"/>
<path fill-rule="evenodd" clip-rule="evenodd" d="M16.4999 13.5205C14.8546 13.5205 13.5208 14.8543 13.5208 16.4997C13.5208 18.145 14.8546 19.4788 16.4999 19.4788C18.1453 19.4788 19.4791 18.145 19.4791 16.4997C19.4791 14.8543 18.1453 13.5205 16.4999 13.5205ZM12.1458 16.4997C12.1458 14.0949 14.0952 12.1455 16.4999 12.1455C18.9047 12.1455 20.8541 14.0949 20.8541 16.4997C20.8541 18.9044 18.9047 20.8538 16.4999 20.8538C14.0952 20.8538 12.1458 18.9044 12.1458 16.4997Z" fill="#1B1B20"/>
</svg>
