<svg width="22" height="22" viewBox="0 0 22 22" fill="none" xmlns="http://www.w3.org/2000/svg">
<path fill-rule="evenodd" clip-rule="evenodd" d="M16.4175 2.52051C15.4864 2.52051 14.74 3.26687 14.74 4.19801C14.74 5.09444 15.4294 5.8169 16.3022 5.87351C16.3754 5.86701 16.4504 5.86701 16.5236 5.87351C17.3949 5.81696 18.0873 5.09542 18.095 4.19556C18.0937 3.27297 17.3461 2.52051 16.4175 2.52051ZM13.365 4.19801C13.365 2.50748 14.727 1.14551 16.4175 1.14551C18.1098 1.14551 19.47 2.51839 19.47 4.19801V4.20292H19.47C19.4582 5.85193 18.1602 7.19081 16.5249 7.25006C16.4875 7.25142 16.45 7.24971 16.4129 7.24497C16.3758 7.24971 16.3383 7.25142 16.3009 7.25006C14.6665 7.19084 13.365 5.8517 13.365 4.19801Z" fill="white"/>
<path fill-rule="evenodd" clip-rule="evenodd" d="M15.4098 8.11331C16.8034 7.86917 18.3925 8.10193 19.5477 8.86848L19.549 8.8693C20.3386 9.39571 20.8245 10.1585 20.8245 11.0088C20.8245 11.8592 20.3386 12.622 19.549 13.1484C18.4023 13.9158 16.8322 14.1477 15.4421 13.9143C15.0677 13.8515 14.8151 13.497 14.8779 13.1225C14.9408 12.7481 15.2953 12.4955 15.6698 12.5583C16.7908 12.7465 17.9884 12.5387 18.785 12.0051L18.7862 12.0043C19.2891 11.669 19.4495 11.2951 19.4495 11.0088C19.4495 10.7227 19.2893 10.349 18.7869 10.0138C17.9804 9.47898 16.7648 9.27187 15.6471 9.46769C15.2731 9.5332 14.9168 9.28313 14.8512 8.90913C14.7857 8.53513 15.0358 8.17883 15.4098 8.11331Z" fill="white"/>
<path fill-rule="evenodd" clip-rule="evenodd" d="M2.50269 4.19801C2.50269 2.51838 3.86292 1.14551 5.55519 1.14551C7.24572 1.14551 8.60769 2.50748 8.60769 4.19801C8.60769 5.8517 7.30616 7.19084 5.67175 7.25006C5.63433 7.25142 5.59688 7.24971 5.55977 7.24497C5.52266 7.24971 5.48521 7.25142 5.44779 7.25006C3.81252 7.19081 2.51448 5.85194 2.5027 4.20292L2.50269 4.19801ZM3.87769 4.19556C3.88537 5.09543 4.57782 5.81696 5.44908 5.87351C5.52229 5.86701 5.59726 5.86701 5.67047 5.87351C6.54323 5.8169 7.23269 5.09444 7.23269 4.19801C7.23269 3.26687 6.48632 2.52051 5.55519 2.52051C4.62661 2.52051 3.87901 3.27297 3.87769 4.19556Z" fill="white"/>
<path fill-rule="evenodd" clip-rule="evenodd" d="M3.1858 10.0138C3.99225 9.47897 5.20784 9.27187 6.3256 9.46769C6.6996 9.5332 7.0559 9.28313 7.12142 8.90913C7.18694 8.53513 6.93686 8.17883 6.56286 8.11331C5.16924 7.86917 3.58017 8.10193 2.42495 8.86848L2.42495 8.86848L2.42371 8.8693C1.63411 9.39571 1.14819 10.1585 1.14819 11.0088C1.14819 11.859 1.63385 12.6216 2.42309 13.148C3.56981 13.9157 5.1402 14.1478 6.53056 13.9143C6.90502 13.8515 7.15761 13.497 7.09474 13.1225C7.03188 12.7481 6.67736 12.4955 6.30291 12.5583C5.18186 12.7465 3.98423 12.5387 3.18767 12.0051L3.18642 12.0043C2.68353 11.669 2.52319 11.2951 2.52319 11.0088C2.52319 10.7227 2.6834 10.3489 3.1858 10.0138Z" fill="white"/>
<path fill-rule="evenodd" clip-rule="evenodd" d="M10.9177 9.36816C9.9866 9.36816 9.24023 10.1145 9.24023 11.0457C9.24023 11.9421 9.92969 12.6646 10.8025 12.7212C10.8767 12.7146 10.9527 12.7147 11.0269 12.7214C11.8911 12.6719 12.5875 11.9479 12.5952 11.0432C12.5939 10.1206 11.8463 9.36816 10.9177 9.36816ZM7.86523 11.0457C7.86523 9.35514 9.2272 7.99316 10.9177 7.99316C12.61 7.99316 13.9702 9.36604 13.9702 11.0457V11.0506H13.9702C13.9585 12.6952 12.6637 14.0502 11.0202 14.0979C10.9844 14.0989 10.9486 14.0972 10.9131 14.0926C10.876 14.0974 10.8386 14.0991 10.8012 14.0977C9.16676 14.0385 7.86523 12.6994 7.86523 11.0457Z" fill="white"/>
<path fill-rule="evenodd" clip-rule="evenodd" d="M11.0036 14.8818C12.0747 14.8818 13.1828 15.1486 14.049 15.7261C14.8386 16.2525 15.3245 17.0152 15.3245 17.8656C15.3245 18.7158 14.8387 19.4785 14.0493 20.0049C13.1794 20.5865 12.0717 20.8562 11.0002 20.8562C9.92858 20.8562 8.82088 20.5865 7.951 20.0049C7.16157 19.4785 6.67578 18.7158 6.67578 17.8656C6.67578 17.0152 7.1617 16.2525 7.9513 15.7261L7.95295 15.7249L7.95295 15.725C8.82285 15.1486 9.93227 14.8818 11.0036 14.8818ZM8.7132 16.8707C8.21094 17.2058 8.05078 17.5794 8.05078 17.8656C8.05078 18.1519 8.21112 18.5258 8.71401 18.861L8.71484 18.8616C9.31154 19.2606 10.1378 19.4812 11.0002 19.4812C11.8625 19.4812 12.6888 19.2606 13.2855 18.8616L13.2863 18.861C13.7892 18.5258 13.9495 18.1519 13.9495 17.8656C13.9495 17.5793 13.7892 17.2054 13.2863 16.8701C12.695 16.4759 11.8689 16.2568 11.0036 16.2568C10.1389 16.2568 9.30991 16.4757 8.7132 16.8707Z" fill="white"/>
</svg>
