<svg width="9" height="10" viewBox="0 0 9 10" fill="none" xmlns="http://www.w3.org/2000/svg">
<path d="M8.03839 0.454958C7.89419 0.310681 7.72297 0.196238 7.53452 0.118174C7.34606 0.0401089 7.14407 -4.75839e-05 6.94009 4.23143e-08C6.7361 4.76685e-05 6.53413 0.0402984 6.34571 0.118451C6.1573 0.196604 5.98613 0.311126 5.842 0.455471L0.966658 5.33748C0.676165 5.62864 0.51296 6.0231 0.512816 6.43439V8.07694C0.512816 8.28925 0.685122 8.46155 0.897428 8.46155H2.55023C2.96202 8.46155 3.35689 8.29745 3.64766 8.00669L8.51941 3.13186C8.81002 2.84056 8.97322 2.4459 8.97322 2.03443C8.97322 1.62297 8.81002 1.2283 8.51941 0.937005L8.03839 0.454958ZM0.384612 9.23078C0.282606 9.23078 0.184779 9.2713 0.11265 9.34343C0.0405214 9.41555 0 9.51338 0 9.61539C0 9.71739 0.0405214 9.81522 0.11265 9.88735C0.184779 9.95948 0.282606 10 0.384612 10H8.58967C8.69167 10 8.7895 9.95948 8.86163 9.88735C8.93376 9.81522 8.97428 9.71739 8.97428 9.61539C8.97428 9.51338 8.93376 9.41555 8.86163 9.34343C8.7895 9.2713 8.69167 9.23078 8.58967 9.23078H0.384612Z" fill="white"/>
</svg>
